<?xml version="1.0" standalone="no"?>
<svg version="1.0" xmlns="http://www.w3.org/2000/svg"
 width="144.000000pt" height="61.200000pt" viewBox="0 0 1600.000000 650.000000"
 preserveAspectRatio="xMidYMid meet">

<g transform="translate(0.000000,650.000000) scale(0.100000,-0.100000)"
fill="#ffffff" stroke="none">
<path d="M3394 6358 l-19 -23 21 18 c11 9 26 17 32 17 9 0 13 -308 15 -1260
l2 -1260 0 1262 c0 1137 -2 1263 -16 1266 -8 1 -24 -8 -35 -20z"/>
<path d="M3668 6373 c7 -3 16 -2 19 1 4 3 -2 6 -13 5 -11 0 -14 -3 -6 -6z"/>
<path d="M3651 5124 c0 -683 2 -1256 6 -1275 5 -27 164 -190 886 -910 517
-517 884 -876 892 -873 7 3 16 1 20 -5 4 -7 12 -8 24 -1 10 5 22 6 26 2 5 -4
5 -2 2 4 -4 6 6 22 21 35 l27 24 -20 -25 -20 -25 22 18 c12 11 19 25 17 32 -5
12 26 38 37 32 2 -1 3 0 2 2 -5 8 18 41 29 41 6 0 6 -6 -3 -17 -7 -10 1 -5 19
11 36 34 44 49 10 20 -21 -17 -21 -17 1 8 13 15 28 25 34 21 6 -3 7 -2 4 4 -8
13 57 76 68 66 4 -5 5 -3 2 3 -8 13 76 97 87 87 4 -5 6 -1 4 7 -2 8 3 14 10
12 8 -1 11 1 8 6 -7 12 418 434 428 425 4 -4 6 -1 4 7 -2 8 3 14 10 12 8 -1
11 1 8 6 -7 12 58 74 69 65 4 -5 5 -3 2 3 -3 6 14 30 38 54 25 24 45 40 45 35
0 -5 13 4 29 19 16 16 27 34 25 41 -6 14 21 39 34 31 9 -5 38 20 44 39 2 5 6
9 10 8 5 -2 7 3 5 10 -1 6 4 11 11 9 8 -1 11 1 8 6 -6 9 77 95 89 92 4 -1 10
2 13 6 4 4 1 4 -5 0 -8 -4 -13 -2 -13 6 0 7 -169 184 -376 392 -281 284 -378
376 -387 367 -6 -6 -21 -11 -33 -11 -28 0 -304 -269 -304 -297 0 -10 87 -105
210 -228 116 -115 210 -213 210 -216 0 -6 -316 -325 -513 -519 l-97 -94 -655
654 c-380 380 -653 660 -650 668 3 7 1 11 -4 8 -5 -3 -11 0 -12 7 -2 6 -2 281
1 610 l5 597 510 -510 c280 -280 518 -510 527 -510 9 0 20 5 23 10 4 6 11 7
17 4 6 -4 8 -3 5 3 -3 5 59 74 139 154 79 79 144 149 144 156 0 13 -1788 1803
-1802 1803 -4 0 -9 -12 -9 -27 -2 -25 -2 -24 -9 7 -4 19 -8 -524 -9 -1206z
m2929 -1979 c-7 -9 -15 -13 -17 -11 -7 7 7 26 19 26 6 0 6 -6 -2 -15z m-60
-58 c0 -2 -12 -14 -26 -28 -25 -22 -26 -23 -15 -2 9 18 19 26 39 32 1 1 2 0 2
-2z"/>
<path d="M3340 6275 c-36 -36 -71 -63 -78 -60 -7 3 -10 0 -6 -6 9 -14 -47 -71
-64 -64 -7 2 -11 1 -8 -4 7 -11 -595 -612 -606 -605 -4 3 -5 -3 -1 -12 5 -13
3 -16 -10 -11 -10 4 -14 2 -11 -6 6 -18 -51 -71 -67 -62 -8 6 -10 4 -4 -4 9
-16 -84 -114 -102 -107 -6 3 -10 -1 -7 -7 6 -16 -51 -71 -65 -63 -7 5 -8 1 -4
-10 5 -13 3 -16 -10 -11 -10 4 -14 2 -11 -7 6 -16 -53 -69 -68 -60 -6 4 -8 3
-5 -3 8 -12 -592 -615 -605 -607 -4 3 -5 -3 -1 -12 5 -13 3 -16 -10 -11 -10 4
-14 2 -11 -6 6 -16 -51 -71 -65 -63 -7 5 -8 1 -4 -10 5 -13 3 -16 -10 -11 -10
4 -14 2 -11 -6 6 -16 -141 -161 -155 -153 -7 5 -8 1 -4 -10 5 -13 3 -16 -10
-11 -10 4 -14 2 -11 -7 6 -16 -53 -69 -68 -60 -6 4 -8 3 -5 -3 8 -12 -592
-615 -604 -607 -5 3 -6 -3 -2 -12 5 -13 3 -16 -10 -11 -10 4 -14 2 -11 -7 6
-16 -31 -50 -45 -41 -6 3 -9 0 -6 -7 7 -17 -109 -133 -124 -124 -6 4 -9 1 -6
-7 6 -15 -29 -52 -42 -44 -4 3 -9 -7 -10 -22 -2 -24 81 -111 616 -645 l619
-619 35 9 c29 7 101 73 369 341 567 565 571 569 564 595 -3 13 -21 81 -40 153
-19 71 -32 133 -28 137 9 9 93 -12 87 -22 -2 -4 7 -5 22 -2 16 3 24 1 20 -5
-4 -6 4 -8 21 -6 22 4 24 2 12 -7 -12 -8 -9 -9 14 -4 18 4 27 3 23 -3 -4 -6 4
-8 21 -6 21 4 24 2 12 -6 -11 -8 -7 -9 19 -4 22 4 32 2 28 -4 -3 -5 2 -10 11
-10 9 0 153 135 320 301 l302 301 0 1224 c0 673 -3 1241 -6 1262 -4 22 -9 39
-13 39 -4 0 -36 -29 -71 -65z m-352 -1652 c-2 -470 -6 -607 -15 -606 -8 2 -10
-4 -6 -14 5 -12 2 -15 -10 -10 -12 4 -14 2 -10 -10 5 -13 2 -15 -11 -10 -11 4
-15 3 -10 -4 8 -13 -33 -52 -46 -44 -6 4 -7 -1 -3 -11 5 -13 3 -16 -10 -11
-12 4 -14 2 -10 -10 5 -13 2 -15 -11 -10 -11 4 -15 3 -10 -4 8 -13 -33 -52
-46 -44 -6 4 -7 -1 -3 -11 5 -14 3 -16 -11 -11 -10 4 -15 3 -11 -3 9 -14 -52
-73 -66 -64 -8 4 -9 3 -5 -4 7 -12 -129 -162 -146 -162 -5 0 -6 5 -3 10 3 6 1
10 -6 10 -15 0 -600 581 -597 592 5 13 1032 1038 1040 1038 5 0 7 -273 6 -607z
m-1072 -1058 c162 -163 294 -304 294 -313 0 -17 -528 -552 -545 -552 -12 0
-605 592 -605 605 0 12 541 555 553 555 5 0 141 -133 303 -295z"/>
<path d="M2191 3254 c0 -11 3 -14 6 -6 3 7 2 16 -1 19 -3 4 -6 -2 -5 -13z"/>
<path d="M13680 3675 c-66 -19 -138 -66 -169 -110 -62 -91 -51 -215 25 -287
40 -37 98 -61 239 -98 164 -44 205 -71 205 -135 0 -35 -46 -80 -96 -94 -91
-25 -222 -5 -323 49 -30 17 -55 29 -56 27 -1 -1 -14 -28 -28 -59 l-26 -58 27
-19 c92 -65 291 -98 424 -70 148 32 231 119 231 244 0 67 -19 113 -61 152 -43
40 -93 61 -234 99 -173 46 -207 67 -208 132 -1 103 179 145 340 78 36 -15 69
-28 73 -29 4 -1 19 25 32 57 23 56 24 60 7 72 -65 51 -294 79 -402 49z"/>
<path d="M15260 3675 c-66 -19 -138 -66 -169 -110 -62 -91 -51 -215 25 -287
40 -37 98 -61 239 -98 164 -44 205 -71 205 -135 0 -35 -46 -80 -96 -94 -91
-25 -222 -5 -323 49 -30 17 -55 29 -56 27 -1 -1 -14 -28 -28 -59 l-26 -58 27
-19 c92 -65 291 -98 424 -70 148 32 231 119 231 244 0 67 -19 113 -61 152 -43
40 -93 61 -234 99 -173 46 -207 67 -208 132 -1 103 179 145 340 78 36 -15 69
-28 73 -29 4 -1 19 25 32 57 23 56 24 60 7 72 -65 51 -294 79 -402 49z"/>
<path d="M7110 3250 l0 -430 325 0 325 0 0 65 0 65 -245 0 -245 0 0 120 0 120
210 0 210 0 0 65 0 65 -210 0 -210 0 0 115 0 115 235 0 235 0 0 65 0 65 -315
0 -315 0 0 -430z"/>
<path d="M7930 3250 l0 -430 80 0 80 0 2 288 3 287 234 -287 234 -288 68 0 69
0 0 430 0 430 -80 0 -80 0 -2 -291 -3 -290 -234 290 -235 291 -68 0 -68 0 0
-430z"/>
<path d="M8810 3615 l0 -65 145 0 145 0 0 -365 0 -365 80 0 80 0 0 365 0 365
140 0 140 0 0 65 0 65 -365 0 -365 0 0 -65z"/>
<path d="M9650 3250 l0 -430 325 0 325 0 0 65 0 65 -245 0 -245 0 0 120 0 120
210 0 210 0 0 65 0 65 -210 0 -210 0 0 115 0 115 235 0 235 0 0 65 0 65 -315
0 -315 0 0 -430z"/>
<path d="M10470 3251 l0 -431 80 0 80 0 0 125 0 125 114 0 115 0 87 -125 88
-125 83 0 c46 0 83 2 83 5 0 4 -77 116 -156 226 l-34 46 50 31 c93 58 137 154
128 277 -10 115 -77 202 -191 248 -47 19 -76 22 -289 25 l-238 4 0 -431z m475
273 c110 -56 111 -239 1 -297 -35 -18 -61 -22 -178 -25 l-138 -4 0 177 0 177
138 -4 c114 -2 144 -6 177 -24z"/>
<path d="M11360 3251 l0 -431 80 0 80 0 0 124 0 124 158 4 c130 4 166 8 212
26 73 29 119 68 155 133 27 49 30 63 30 144 0 81 -3 95 -30 144 -36 64 -82
104 -155 133 -50 20 -77 23 -292 26 l-238 4 0 -431z m475 273 c48 -24 85 -89
85 -149 0 -60 -37 -125 -85 -149 -33 -18 -63 -22 -177 -24 l-138 -4 0 177 0
177 138 -4 c114 -2 144 -6 177 -24z"/>
<path d="M12240 3251 l0 -431 80 0 80 0 0 125 0 125 114 0 115 0 87 -125 88
-125 83 0 c46 0 83 2 83 5 0 4 -77 116 -156 226 l-34 46 50 31 c93 58 137 154
128 277 -10 115 -77 202 -191 248 -47 19 -76 22 -289 25 l-238 4 0 -431z m475
273 c110 -56 111 -239 1 -297 -35 -18 -61 -22 -178 -25 l-138 -4 0 177 0 177
138 -4 c114 -2 144 -6 177 -24z"/>
<path d="M13130 3250 l0 -430 80 0 80 0 0 430 0 430 -80 0 -80 0 0 -430z"/>
<path d="M14290 3250 l0 -430 325 0 325 0 0 65 0 65 -245 0 -245 0 0 120 0
120 210 0 210 0 0 65 0 65 -210 0 -210 0 0 115 0 115 235 0 235 0 0 65 0 65
-315 0 -315 0 0 -430z"/>
<path d="M2672 2747 c-474 -474 -862 -867 -862 -872 0 -6 387 -397 860 -870
945 -945 889 -896 947 -831 l28 31 -35 -30 -35 -30 34 37 c19 21 39 34 45 31
6 -3 8 -2 3 2 -10 12 73 96 87 88 6 -3 8 -2 3 2 -10 11 73 96 86 88 6 -3 7 -2
4 4 -8 13 57 76 67 66 4 -5 6 -1 4 7 -2 9 3 14 12 12 8 -2 11 0 7 4 -4 5 77
94 181 199 104 104 192 198 196 208 4 12 2 16 -6 11 -8 -5 -9 -2 -5 11 4 9 2
24 -4 31 -6 8 -13 28 -15 46 -3 35 -29 132 -38 147 -9 14 4 39 22 44 10 3 4 5
-13 6 -18 1 -25 5 -20 10 6 6 57 -3 135 -25 143 -39 232 -47 227 -20 -1 6 4
10 11 8 6 -1 11 4 10 10 -2 7 3 12 10 10 8 -1 11 1 8 6 -7 12 58 74 68 65 4
-5 6 -1 4 7 -2 8 3 14 10 12 8 -1 11 1 8 6 -7 12 78 94 89 85 4 -5 5 -3 2 3
-8 13 56 77 67 67 4 -5 6 -1 4 7 -2 9 3 14 12 12 8 -2 11 0 7 4 -4 5 81 97
190 206 185 186 197 199 188 223 -13 33 -1704 1725 -1725 1725 -8 0 -403 -388
-878 -863z m878 223 l-25 -8 26 -1 c17 -1 44 -19 77 -51 28 -27 49 -50 45 -50
-3 0 103 -108 236 -240 133 -132 247 -240 252 -240 5 0 8 -6 6 -12 -1 -7 5
-12 13 -10 8 2 12 0 7 -4 -9 -10 33 -55 45 -48 5 3 7 0 6 -8 -2 -7 3 -12 9
-11 7 2 12 -3 10 -10 -1 -6 5 -11 13 -9 8 2 12 0 8 -4 -10 -9 12 -35 23 -28 5
3 8 0 7 -8 -2 -7 3 -12 9 -11 7 2 12 -3 10 -10 -1 -6 5 -11 13 -9 8 2 12 1 8
-3 -9 -10 24 -45 35 -38 6 3 7 1 4 -4 -4 -6 50 -65 118 -132 69 -66 125 -122
125 -123 0 -2 -85 -89 -188 -195 l-188 -192 -544 544 -545 545 121 122 c66 68
150 153 185 190 39 41 72 67 84 67 16 -1 15 -2 -5 -9z m-170 -1237 c297 -296
540 -541 540 -545 0 -13 -359 -368 -372 -368 -7 0 -255 243 -552 539 -464 465
-536 542 -525 554 8 8 17 13 20 11 4 -2 13 4 20 13 12 14 12 16 -1 8 -8 -4
-12 -5 -8 0 4 4 17 13 29 19 12 6 21 15 20 20 -1 4 12 17 29 27 18 12 28 24
24 31 -4 6 -3 8 3 5 13 -8 76 57 66 67 -5 4 -1 6 7 4 8 -1 14 3 13 10 -2 6 3
11 10 10 6 -2 11 3 9 10 -1 8 1 11 6 8 9 -6 48 35 44 47 -1 4 4 6 11 5 6 -2
11 4 9 12 -2 8 0 12 4 8 4 -4 13 -3 21 3 7 6 22 9 33 6 11 -3 18 -1 14 4 -3 5
-14 9 -25 9 -11 0 -17 5 -14 10 3 6 10 10 15 10 5 0 253 -242 550 -537z"/>
<path d="M3620 1466 c0 -2 8 -10 18 -17 15 -13 16 -12 3 4 -13 16 -21 21 -21
13z"/>
<path d="M6674 3238 l-29 -33 33 29 c30 28 37 36 29 36 -2 0 -16 -15 -33 -32z"/>
<path d="M6424 2988 l-29 -33 33 29 c17 17 32 31 32 33 0 8 -8 1 -36 -29z"/>
<path d="M6344 2908 l-19 -23 23 19 c21 18 27 26 19 26 -2 0 -12 -10 -23 -22z"/>
<path d="M5794 2358 l-29 -33 33 29 c17 17 32 31 32 33 0 8 -8 1 -36 -29z"/>
<path d="M5714 2278 l-19 -23 23 19 c21 18 27 26 19 26 -2 0 -12 -10 -23 -22z"/>
<path d="M4834 1398 l-19 -23 23 19 c12 11 22 21 22 23 0 8 -8 2 -26 -19z"/>
<path d="M4754 1318 l-29 -33 33 29 c30 28 37 36 29 36 -2 0 -16 -15 -33 -32z"/>
<path d="M4654 1218 l-19 -23 23 19 c21 18 27 26 19 26 -2 0 -12 -10 -23 -22z"/>
<path d="M4288 1173 c7 -3 16 -2 19 1 4 3 -2 6 -13 5 -11 0 -14 -3 -6 -6z"/>
<path d="M3864 428 l-19 -23 23 19 c12 11 22 21 22 23 0 8 -8 2 -26 -19z"/>
<path d="M3784 348 l-29 -33 33 29 c17 17 32 31 32 33 0 8 -8 1 -36 -29z"/>
<path d="M3694 258 l-29 -33 33 29 c17 17 32 31 32 33 0 8 -8 1 -36 -29z"/>
</g>
</svg>
