<?xml version="1.0" standalone="no"?>
<svg version="1.0" xmlns="http://www.w3.org/2000/svg"
 width="60pt" height="60pt" viewBox="0 0 1200.000000 1100.000000"
 preserveAspectRatio="xMidYMid meet">

<g transform="translate(0.000000,1100.000000) scale(0.100000,-0.100000)"
fill="#ffffff" stroke="none">
<path d="M5805 9055 c0 -962 1 -1355 2 -872 2 483 2 1271 0 1750 -1 480 -2 85
-2 -878z"/>
<path d="M6092 9065 c-1 -946 1 -1737 5 -1758 5 -35 115 -148 1226 -1258 671
-670 1224 -1216 1229 -1212 6 3 21 -1 34 -8 24 -12 33 -4 312 271 595 589
1441 1446 1442 1461 0 8 -10 25 -22 36 -13 11 -245 244 -517 517 -272 273
-498 496 -502 496 -3 0 -12 -6 -18 -14 -6 -7 -21 -11 -34 -9 -27 5 -77 -34
-149 -115 -20 -23 -41 -42 -47 -42 -6 0 -11 -4 -11 -8 0 -13 -56 -72 -68 -72
-7 0 -12 -7 -12 -15 0 -8 -6 -15 -13 -15 -16 0 -57 -42 -57 -58 0 -7 -7 -12
-15 -12 -8 0 -15 -6 -15 -14 0 -7 -9 -16 -20 -19 -14 -4 -20 -14 -20 -34 0
-24 46 -74 290 -318 292 -292 311 -315 275 -345 -8 -7 -15 -10 -15 -7 0 3 -33
-29 -72 -71 -149 -158 -714 -712 -732 -718 -15 -5 -209 184 -932 908 l-914
914 0 842 c0 661 3 842 12 842 7 0 330 -317 718 -705 388 -388 712 -705 720
-705 24 0 450 432 450 455 0 14 -168 188 -495 515 -273 272 -661 661 -863 863
-202 202 -501 502 -666 665 -164 163 -332 332 -374 375 -41 42 -81 77 -89 77
-8 0 -13 -11 -13 -29 0 -47 -18 -46 -23 1 -2 24 -4 -731 -5 -1677z"/>
<path d="M3651 8669 c-1479 -1480 -2091 -2098 -2091 -2113 0 -14 266 -286 855
-875 l854 -853 46 6 c44 7 59 20 476 434 237 235 435 429 440 430 5 2 9 10 9
18 0 8 7 14 15 14 8 0 15 7 15 15 0 8 7 15 15 15 8 0 15 4 15 8 0 5 62 71 137
147 76 75 147 151 158 167 20 29 20 33 5 92 -8 33 -18 66 -21 71 -4 6 -12 42
-19 80 -8 39 -17 75 -21 80 -3 6 -12 34 -18 64 -13 60 -3 87 27 72 10 -5 35
-13 57 -18 23 -5 39 -14 37 -21 -2 -10 2 -10 19 -2 15 9 24 9 32 1 6 -6 21
-11 33 -11 13 0 25 -4 28 -9 3 -5 16 -7 28 -3 17 4 20 2 15 -12 -4 -10 -3 -15
3 -11 18 11 50 14 50 4 0 -5 13 -9 28 -9 15 0 33 -5 39 -11 8 -8 17 -7 34 2
13 6 206 194 429 417 l405 404 3 1714 c1 1147 -1 1714 -8 1714 -5 0 -10 16
-10 35 0 23 -5 35 -14 35 -7 0 -955 -941 -2105 -2091z m1529 -278 c0 -797 -1
-829 -19 -852 -39 -50 -590 -599 -601 -599 -6 0 -8 5 -5 10 3 6 -1 10 -9 10
-19 0 -206 178 -206 197 0 7 -5 13 -12 13 -20 0 -610 599 -606 615 5 25 1421
1435 1440 1435 17 0 18 -44 18 -829z m-1499 -1476 c228 -229 416 -422 417
-431 2 -10 -142 -161 -377 -395 -344 -344 -382 -379 -400 -369 -12 6 -21 15
-21 20 0 6 -7 10 -15 10 -8 0 -15 3 -15 8 0 4 -175 183 -390 397 -214 215
-390 395 -390 400 0 11 761 775 772 775 3 0 191 -187 419 -415z"/>
<path d="M4977 6026 c-1404 -1408 -1437 -1441 -1437 -1457 0 -8 194 -208 430
-444 237 -237 582 -582 768 -769 185 -186 342 -343 348 -350 667 -664 843
-836 860 -836 12 0 219 198 534 509 468 463 514 511 503 529 -6 11 -9 29 -7
40 3 11 -2 34 -11 52 -9 17 -15 41 -13 53 1 12 0 27 -4 32 -9 16 -37 115 -32
115 2 0 -2 13 -11 30 -19 38 -11 77 18 83 13 2 10 3 -6 2 -30 -2 -45 11 -30
26 6 6 26 5 54 -5 24 -8 60 -17 79 -21 19 -3 44 -10 55 -15 24 -11 129 -37
204 -51 l55 -10 165 164 c765 756 851 842 851 860 0 11 -11 34 -24 51 -13 17
-549 556 -1192 1199 -851 851 -1173 1167 -1188 1165 -13 -1 -372 -353 -969
-952z m973 65 c-23 -7 -23 -8 13 -15 20 -4 37 -12 37 -19 0 -7 16 -23 35 -37
19 -14 35 -31 35 -37 0 -7 5 -13 10 -13 6 0 20 -9 32 -20 12 -11 20 -20 17
-20 -3 0 148 -152 335 -337 187 -186 339 -341 338 -345 -1 -5 5 -8 13 -8 8 0
15 -4 15 -10 0 -5 11 -21 25 -35 14 -14 30 -25 35 -25 6 0 10 -7 10 -15 0 -8
7 -15 15 -15 8 0 14 -5 12 -12 -1 -7 4 -12 11 -13 6 0 12 -4 11 -9 0 -5 10
-14 23 -21 13 -6 22 -17 20 -24 -1 -7 2 -10 7 -7 10 6 25 -11 26 -29 1 -5 6
-9 13 -8 7 2 12 -4 12 -12 0 -8 6 -15 13 -15 17 0 49 -34 42 -43 -3 -4 -2 -5
2 -2 10 8 33 -16 26 -28 -3 -5 -1 -7 4 -4 6 4 18 -2 28 -13 10 -11 14 -20 9
-20 -5 0 2 -6 16 -13 13 -7 30 -24 37 -37 7 -14 17 -24 23 -22 5 1 10 -5 10
-13 0 -8 5 -15 10 -15 6 0 21 -11 33 -24 12 -14 30 -33 39 -43 9 -10 30 -29
47 -42 17 -13 28 -28 25 -33 -3 -4 -1 -8 5 -8 6 0 14 -8 20 -17 7 -15 -36 -64
-249 -281 -224 -229 -260 -263 -276 -254 -26 15 -1499 1490 -1494 1496 63 63
401 410 448 459 42 43 72 67 86 66 18 -1 18 -2 -4 -8z m-289 -1666 c876 -874
805 -799 786 -827 -26 -39 -487 -498 -500 -498 -6 0 -349 337 -760 749 l-748
748 24 27 c13 14 29 26 35 26 6 0 9 7 6 15 -4 10 0 15 10 15 9 0 19 7 22 15 4
8 10 12 15 9 5 -3 9 3 9 13 0 10 10 23 23 28 12 6 21 17 19 24 -2 8 3 11 13 8
10 -5 15 0 15 14 0 15 5 19 15 15 9 -3 15 0 15 9 0 8 7 15 15 15 8 0 14 3 12
8 -3 11 42 57 56 57 7 0 11 8 9 18 -2 13 2 17 15 15 12 -2 18 3 17 15 -1 10 3
16 9 14 7 -2 17 6 23 17 6 12 16 20 22 19 7 -2 12 6 12 18 0 15 5 19 15 15 10
-4 15 1 15 15 0 15 5 19 15 15 9 -3 15 0 15 9 0 11 11 15 38 15 27 0 33 3 22
10 -8 5 -24 7 -35 3 -18 -5 -18 -4 -6 11 8 9 20 16 27 14 8 -2 325 -313 705
-693z"/>
<path d="M7178 3543 c7 -3 16 -2 19 1 4 3 -2 6 -13 5 -11 0 -14 -3 -6 -6z"/>
<path d="M9161 1375 c-128 -29 -233 -102 -282 -197 -27 -51 -37 -172 -20 -234
25 -93 114 -171 241 -212 36 -12 126 -37 200 -57 201 -53 255 -94 247 -183
-10 -95 -92 -138 -262 -136 -127 1 -229 28 -328 88 l-58 35 -35 -75 c-19 -41
-34 -82 -34 -89 0 -19 64 -59 133 -85 166 -62 359 -77 501 -40 100 27 147 51
206 106 65 61 93 128 94 224 1 98 -21 155 -82 212 -60 56 -110 80 -252 119
-259 70 -282 79 -322 119 -32 32 -38 44 -38 82 0 95 73 146 220 155 97 6 213
-18 301 -62 27 -14 52 -26 55 -28 4 -1 73 156 74 170 0 9 -110 56 -172 74 -96
28 -295 35 -387 14z"/>
<path d="M11351 1375 c-130 -29 -231 -100 -283 -197 -20 -37 -23 -58 -23 -143
0 -84 4 -107 22 -140 49 -91 126 -137 318 -190 236 -66 261 -74 303 -104 91
-67 57 -189 -65 -232 -24 -9 -79 -14 -148 -13 -127 1 -229 28 -328 88 l-58 35
-38 -82 c-21 -45 -36 -86 -34 -90 9 -15 83 -57 136 -77 166 -62 359 -77 501
-40 100 27 147 51 206 106 65 61 93 128 94 224 1 98 -21 155 -82 212 -60 56
-110 80 -252 119 -259 70 -282 79 -322 119 -32 32 -38 44 -38 82 0 95 73 146
220 155 97 6 213 -18 301 -62 27 -14 52 -26 55 -28 4 -1 73 156 74 170 0 9
-110 56 -172 74 -96 28 -295 35 -387 14z"/>
<path d="M42 783 l3 -598 420 -3 c231 -1 430 0 443 3 21 5 22 11 22 90 l0 85
-332 2 -333 3 -3 168 -2 167 285 0 285 0 0 90 0 90 -285 0 -285 0 0 160 0 160
319 0 320 0 3 86 c2 47 1 88 -1 90 -2 2 -197 4 -433 4 l-428 0 2 -597z"/>
<path d="M1177 1373 c-4 -3 -7 -271 -7 -594 l0 -589 23 -5 c12 -3 60 -5 107
-3 l85 3 5 400 5 400 170 -209 c94 -115 240 -295 325 -400 l155 -191 90 0 90
0 0 595 0 595 -107 3 -108 3 0 -403 0 -403 -24 25 c-23 24 -541 665 -600 743
l-28 37 -88 0 c-47 0 -90 -3 -93 -7z"/>
<path d="M2397 1373 c-4 -3 -7 -44 -7 -89 l0 -84 198 -2 197 -3 5 -505 5 -505
105 0 105 0 3 508 2 507 195 0 195 0 0 90 0 90 -498 0 c-274 0 -502 -3 -505
-7z"/>
<path d="M3562 783 l3 -598 440 0 440 0 3 87 3 88 -333 2 -333 3 -3 168 -2
167 285 0 285 0 0 90 0 90 -285 0 -285 0 0 160 0 160 323 0 322 0 -2 87 -1 88
-431 3 -431 2 2 -597z"/>
<path d="M4697 1373 c-4 -3 -7 -271 -7 -594 0 -526 2 -587 16 -593 22 -9 187
-7 199 2 6 4 10 74 10 172 l0 165 157 3 156 2 79 -112 c44 -62 99 -141 122
-175 l43 -63 115 0 c95 0 114 2 110 14 -3 8 -63 97 -133 197 -70 101 -123 184
-116 187 33 11 131 83 155 115 69 90 99 220 78 336 -24 133 -94 227 -216 287
-110 54 -187 64 -494 64 -147 0 -271 -3 -274 -7z m568 -185 c75 -15 142 -61
172 -117 32 -62 32 -170 0 -231 -54 -103 -137 -132 -368 -128 l-154 3 -3 230
c-1 126 0 235 2 242 7 17 269 18 351 1z"/>
<path d="M5932 783 l3 -598 105 0 105 0 3 173 2 172 170 0 c113 0 193 5 242
15 230 48 358 195 358 410 0 219 -131 364 -369 409 -63 12 -149 16 -352 16
l-269 0 2 -597z m578 401 c53 -12 79 -24 114 -55 97 -86 101 -251 9 -343 -59
-59 -132 -76 -324 -76 l-159 0 0 245 0 245 146 0 c96 0 168 -5 214 -16z"/>
<path d="M7152 783 l3 -598 105 0 105 0 3 173 2 172 158 0 157 0 42 -63 c89
-131 172 -249 188 -268 16 -17 32 -19 125 -19 59 0 109 3 112 6 3 3 -52 87
-122 187 -71 100 -130 186 -131 192 -1 5 20 23 47 38 138 80 201 206 192 377
-9 154 -89 276 -222 339 -107 50 -194 61 -497 61 l-269 0 2 -597z m578 401
c53 -12 79 -24 114 -55 96 -85 101 -247 9 -341 -60 -61 -129 -78 -324 -78
l-159 0 0 245 0 245 146 0 c96 0 168 -5 214 -16z"/>
<path d="M8385 1368 c-3 -7 -4 -276 -3 -598 l3 -585 105 0 105 0 3 598 2 597
-105 0 c-75 0 -107 -4 -110 -12z"/>
<path d="M9992 783 l3 -598 440 0 440 0 3 87 3 88 -333 2 -333 3 -3 168 -2
167 285 0 285 0 0 90 0 90 -285 0 -285 0 0 160 0 160 325 0 326 0 -3 88 -3 87
-433 3 -432 2 2 -597z"/>
</g>
</svg>